<?xml version="1.0" encoding="UTF-8" standalone="no"?>
<!-- Created with Inkscape (http://www.inkscape.org/) -->

<svg
   version="1.1"
   id="svg1"
   width="229.44"
   height="226.56"
   viewBox="0 0 229.44 226.56"
   xmlns="http://www.w3.org/2000/svg"
   xmlns:svg="http://www.w3.org/2000/svg">
  <defs
     id="defs1" />
  <g
     id="g1">
    <path
       id="path1"
       style="fill:#27c6f3;fill-opacity:1"
       d="m 121.05078,31.037109 c -1.75215,0.113021 -3.71565,1.138628 -5.4414,3.048829 -2.55348,2.826379 -3.08074,4.94533 -3.33594,13.373046 l -0.1875,6.138672 -1.95117,0.177735 c -1.0736,0.09748 -4.32843,0.328148 -7.23243,0.511718 -7.115969,0.449823 -11.474955,0.892123 -12.671871,1.285157 -1.763072,0.578945 -1.844672,1.079165 -1.980469,12.30664 -0.03959,3.273417 -0.0912,4.835294 -0.146484,6.425782 a 40.423664,28.15724 0 0 0 27.212894,7.410156 40.423664,28.15724 0 0 0 28.38086,-8.125 l -0.006,-4.125 c -0.0107,-7.611465 -0.44337,-12.365784 -1.22266,-13.40625 -0.21572,-0.288004 -1.28224,-0.616411 -2.60547,-0.800782 -2.36018,-0.328852 -18.11932,-1.61914 -19.77344,-1.61914 h -0.96679 l 0.19726,-5.279297 c 0.10916,-2.903638 0.34444,-5.55004 0.52149,-5.880859 0.17704,-0.330819 1.39002,-1.266529 2.69531,-2.080078 3.43103,-2.138461 4.15701,-4.013654 2.68555,-6.931641 -0.87855,-1.742213 -2.41973,-2.542708 -4.17188,-2.429688 z m -5.06836,30.601563 c 2.35096,0 4.40081,2.475661 4.11914,4.974609 -0.1701,1.509088 -0.93958,2.72078 -2.20898,3.478516 -0.8226,0.491024 -2.80813,0.638186 -3.78906,0.28125 -0.90905,-0.33078 -2.22761,-1.802909 -2.58594,-2.888672 -0.96088,-2.911498 1.28095,-5.845703 4.46484,-5.845703 z m 15.98633,0.90039 c 0.81577,-0.02946 1.61975,0.295537 2.30273,0.978516 1.64394,1.643943 1.64394,3.559183 0,5.203125 -1.36596,1.36596 -3.21333,1.298383 -4.68164,-0.169922 -0.89194,-0.891936 -1.08789,-1.329836 -1.08789,-2.43164 0,-1.101804 0.19595,-1.539704 1.08789,-2.431641 0.73416,-0.734152 1.56314,-1.11898 2.37891,-1.148438 z m -32.474609,0.0078 c 0.846709,-0.0029 1.700729,0.314013 2.382809,0.996094 1.00734,1.007317 1.35389,2.070726 1.10157,3.390625 -0.0858,0.448628 -0.5822,1.242346 -1.10157,1.761718 -2.566723,2.56673 -6.845319,-0.20684 -5.695309,-3.691406 0.514954,-1.560326 1.90132,-2.452263 3.3125,-2.457031 z m 47.267579,15.271484 a 43.163988,27.415748 0 0 1 -31.51758,8.753907 43.163988,27.415748 0 0 1 -29.017578,-7.191407 c -0.843353,0.359378 -1.921079,0.773518 -3.121093,1.171875 -9.673529,3.211229 -17.605202,6.926038 -24.363281,11.410157 -4.339091,2.879072 -6.382413,4.900107 -9.144532,9.048832 -13.058046,19.61328 -11.255909,46.04182 4.345703,63.74805 3.603357,4.08944 11.604612,8.87642 21.238282,12.70703 9.310325,3.70205 17.330556,5.69001 30.921879,7.66406 1.144,0.16612 7.69459,0.25617 14.55859,0.20117 10.51078,-0.0843 13.23865,-0.20418 17.28125,-0.76562 14.24924,-1.97895 25.07078,-5.22347 36.04297,-10.80274 4.22113,-2.14641 11.08338,-6.52146 12.36133,-7.88281 l 0.72461,-0.77344 -0.97461,-2.36328 c -2.4666,-5.98157 -4.66385,-14.49328 -5.81836,-22.54492 -0.64271,-4.48228 -0.5419,-18.89292 0.16601,-23.67969 0.96161,-6.50228 3.57545,-16.98741 4.7793,-19.17383 0.20192,-0.36673 0.40838,-0.912954 0.45898,-1.214844 0.0505,-0.30189 0.10992,-0.662671 0.13282,-0.800781 0.12428,-0.75021 -0.30152,-1.162512 -3.1543,-3.052734 C 172.23494,85.368375 162.3388,81.310002 148.18359,78.136719 Z m -131.931642,14.541016 0.216797,1.447266 c 0.328636,2.191498 2.60956,10.193952 6.714844,23.558592 2.035322,6.62594 3.701172,12.25728 3.701172,12.51368 0,0.2564 -1.498555,5.34684 -3.330079,11.3125 -4.812983,15.67693 -7.220115,24.21079 -7.228515,25.6289 -0.0012,0.20938 0.539219,0.44359 1.199219,0.52149 1.525385,0.18005 20.877752,-0.072 22.798828,-0.29688 l 1.439453,-0.16797 1.230469,-3.00195 c 1.227366,-2.99787 1.370661,-4.59717 0.46289,-5.1582 -0.367486,-0.22712 -3.066145,-5.83986 -3.248047,-6.75586 -0.06132,-0.30876 -0.334951,-1.06776 -0.609375,-1.68555 -0.747771,-1.68341 -2.061517,-6.50593 -2.65625,-9.75391 -1.167112,-6.37386 -1.093067,-15.0152 0.185547,-21.70312 0.728762,-3.81187 2.692274,-10.3091 3.212891,-10.63086 0.172054,-0.10633 0.243683,-0.30701 0.158203,-0.44531 -0.08548,-0.13831 0.703298,-1.99422 1.753906,-4.125 1.050608,-2.13079 1.904185,-4.202724 1.896485,-4.605474 -0.0077,-0.40275 -0.619113,-1.957125 -1.359375,-3.453125 L 40.023438,92.837878 38.263672,92.630846 C 37.295672,92.516256 31.626,92.408012 25.666016,92.390612 Z M 116.98242,93.18944 c 5.82616,-0.01867 9.19245,0.505513 12.39063,1.931641 0.6652,0.29662 1.28114,0.553812 1.36914,0.570312 0.23603,0.04421 4.85725,2.393297 5.58984,2.841797 1.51386,0.9268 5.22528,4.0107 6.92383,5.75196 7.23976,7.42177 10.9942,18.76181 9.55664,28.87304 -1.15484,8.12274 -4.84691,15.40712 -10.68555,21.08203 -2.16926,2.10843 -6.37457,5.31836 -6.96679,5.31836 -0.15553,0 -0.6845,0.29693 -1.17578,0.66016 -0.4913,0.36323 -1.09808,0.69588 -1.34766,0.73828 -0.24957,0.0424 -0.88606,0.30174 -1.41406,0.57617 -1.51103,0.78536 -4.87731,1.79276 -7.79493,2.33203 -3.2818,0.60657 -9.22912,0.59774 -12.63476,-0.0176 -7.43197,-1.34275 -13.995063,-4.91492 -19.38672,-10.55469 -4.051383,-4.23782 -6.338494,-7.84126 -8.107422,-12.77344 -3.295367,-9.18825 -2.456755,-20.12337 2.191406,-28.59961 2.530063,-4.61374 7.330535,-9.90643 11.638672,-12.832032 2.932164,-1.9912 7.540804,-4.079166 11.125004,-5.041016 2.79438,-0.749898 3.72698,-0.841422 8.72851,-0.857422 z m 74.5625,6.208985 c -0.78546,0 -3.69614,11.009395 -4.69531,17.759765 -0.70362,4.75371 -0.80263,17.96329 -0.16797,22.40039 0.98738,6.90307 3.09993,15.41307 4.82617,19.43946 0.35842,0.836 0.78039,1.52148 0.9375,1.52148 0.50265,0 5.26822,-5.6751 7.33008,-8.72851 3.46,-5.1239 5.70624,-11.23439 6.49609,-17.67188 1.01206,-8.24853 -1.61066,-17.79496 -7.08593,-25.78906 -2.06662,-3.01736 -7.12596,-8.931645 -7.64063,-8.931645 z m -74.24219,7.214845 c -3.72709,-0.0118 -4.65009,0.0926 -6.7207,0.76367 -1.32,0.42778 -2.47059,0.79205 -2.55859,0.81055 -0.15854,0.0332 -0.71578,0.33243 -2.88086,1.54297 -4.29967,2.40402 -8.336009,8.03002 -9.804689,13.66797 -0.33433,1.28341 -0.541016,3.30676 -0.541016,5.28125 0,1.97448 0.206686,3.99587 0.541016,5.27929 1.16591,4.47568 4.006897,9.14338 7.152339,11.75 1.39275,1.15416 5.55304,3.66252 6.33204,3.81836 0.176,0.0352 1.4007,0.35581 2.7207,0.71094 2.98382,0.80276 7.47357,0.87508 10.65625,0.17188 7.15106,-1.58 13.46095,-6.9774 15.85742,-13.56446 1.69041,-4.64636 2.01414,-7.94957 1.19727,-12.21875 -1.57466,-8.22962 -7.05888,-14.47127 -15.06446,-17.14453 -2.26412,-0.75604 -3.07606,-0.85704 -6.88672,-0.86914 z" />
  </g>
</svg>
